<?xml version="1.0" encoding="UTF-8"?>
<svg xmlns="http://www.w3.org/2000/svg" xmlns:xlink="http://www.w3.org/1999/xlink" width="60px" height="36px" viewBox="0 0 59 36" version="1.1">
<defs>
<filter id="alpha" filterUnits="objectBoundingBox" x="0%" y="0%" width="100%" height="100%">
  <feColorMatrix type="matrix" in="SourceGraphic" values="0 0 0 0 1 0 0 0 0 1 0 0 0 0 1 0 0 0 1 0"/>
</filter>
<mask id="mask0">
  <g filter="url(#alpha)">
<rect x="0" y="0" width="59" height="36" style="fill:rgb(0%,0%,0%);fill-opacity:0.972549;stroke:none;"/>
  </g>
</mask>
<clipPath id="clip1">
  <rect x="0" y="0" width="59" height="36"/>
</clipPath>
<g id="surface5" clip-path="url(#clip1)">
<path style=" stroke:none;fill-rule:evenodd;fill:rgb(0%,0%,0%);fill-opacity:1;" d="M 4.261719 -0.0507812 C 4.328125 -0.0507812 4.394531 -0.0507812 4.460938 -0.0507812 C 12.851562 9.238281 21.261719 18.453125 29.695312 27.589844 C 37.960938 18.539062 46.226562 9.492188 54.492188 0.441406 C 55.96875 1.808594 57.453125 3.152344 58.949219 4.476562 C 58.949219 4.574219 58.949219 4.671875 58.949219 4.769531 C 54.605469 9.441406 50.308594 14.097656 46.0625 18.738281 C 40.828125 24.46875 35.617188 30.203125 30.429688 35.949219 C 30.367188 35.949219 30.300781 35.949219 30.234375 35.949219 C 29.894531 35.871094 29.535156 35.820312 29.15625 35.804688 C 29.027344 35.671875 28.894531 35.539062 28.765625 35.410156 C 28.539062 35.488281 28.359375 35.40625 28.226562 35.164062 C 18.820312 24.84375 9.398438 14.546875 -0.0507812 4.277344 C -0.0507812 4.148438 -0.0507812 4.015625 -0.0507812 3.886719 C 1.421875 2.605469 2.859375 1.296875 4.261719 -0.0507812 Z M 4.261719 -0.0507812 "/>
</g>
</defs>
<g id="surface1">
<use xlink:href="#surface5" mask="url(#mask0)"/>
</g>
</svg>
