<?xml version="1.0" encoding="UTF-8"?>
<svg xmlns="http://www.w3.org/2000/svg" xmlns:xlink="http://www.w3.org/1999/xlink" width="25px" height="15px" viewBox="0 0 24 15" version="1.1">
<defs>
<filter id="alpha" filterUnits="objectBoundingBox" x="0%" y="0%" width="100%" height="100%">
  <feColorMatrix type="matrix" in="SourceGraphic" values="0 0 0 0 1 0 0 0 0 1 0 0 0 0 1 0 0 0 1 0"/>
</filter>
<mask id="mask0">
  <g filter="url(#alpha)">
<rect x="0" y="0" width="24" height="15" style="fill:rgb(0%,0%,0%);fill-opacity:0.972549;stroke:none;"/>
  </g>
</mask>
<clipPath id="clip1">
  <rect x="0" y="0" width="24" height="15"/>
</clipPath>
<g id="surface5" clip-path="url(#clip1)">
<path style=" stroke:none;fill-rule:evenodd;fill:rgb(0%,0%,0%);fill-opacity:1;" d="M 1.734375 -0.0195312 C 1.761719 -0.0195312 1.789062 -0.0195312 1.8125 -0.0195312 C 5.226562 3.847656 8.648438 7.6875 12.078125 11.496094 C 15.441406 7.726562 18.804688 3.953125 22.167969 0.183594 C 22.765625 0.753906 23.371094 1.3125 23.980469 1.863281 C 23.980469 1.90625 23.980469 1.945312 23.980469 1.988281 C 22.210938 3.933594 20.464844 5.875 18.738281 7.808594 C 16.609375 10.195312 14.488281 12.585938 12.378906 14.980469 C 12.351562 14.980469 12.324219 14.980469 12.300781 14.980469 C 12.160156 14.945312 12.015625 14.925781 11.859375 14.917969 C 11.808594 14.863281 11.753906 14.808594 11.699219 14.753906 C 11.609375 14.789062 11.535156 14.753906 11.480469 14.652344 C 7.65625 10.351562 3.824219 6.0625 -0.0195312 1.78125 C -0.0195312 1.726562 -0.0195312 1.671875 -0.0195312 1.617188 C 0.578125 1.085938 1.164062 0.539062 1.734375 -0.0195312 Z M 1.734375 -0.0195312 "/>
</g>
</defs>
<g id="surface1">
<use xlink:href="#surface5" mask="url(#mask0)"/>
</g>
</svg>
