<?xml version="1.0" encoding="UTF-8"?>
<!DOCTYPE svg PUBLIC "-//W3C//DTD SVG 1.1//EN" "http://www.w3.org/Graphics/SVG/1.1/DTD/svg11.dtd">
<svg xmlns="http://www.w3.org/2000/svg" version="1.1" width="602px" height="366px" style="shape-rendering:geometricPrecision; text-rendering:geometricPrecision; image-rendering:optimizeQuality; fill-rule:evenodd; clip-rule:evenodd" xmlns:xlink="http://www.w3.org/1999/xlink">
<g><path style="opacity:0.973" fill="#000000" d="M 43.5,-0.5 C 44.1667,-0.5 44.8333,-0.5 45.5,-0.5C 131.113,93.9216 216.947,187.588 303,280.5C 387.333,188.5 471.667,96.5 556,4.5C 571.057,18.396 586.224,32.0626 601.5,45.5C 601.5,46.5 601.5,47.5 601.5,48.5C 557.158,95.9838 513.325,143.317 470,190.5C 416.576,248.75 363.41,307.083 310.5,365.5C 309.833,365.5 309.167,365.5 308.5,365.5C 305.023,364.677 301.356,364.177 297.5,364C 296.167,362.667 294.833,361.333 293.5,360C 291.209,360.811 289.375,359.977 288,357.5C 192.05,252.57 95.883,147.903 -0.5,43.5C -0.5,42.1667 -0.5,40.8333 -0.5,39.5C 14.4917,26.5075 29.1584,13.1742 43.5,-0.5 Z"/></g>
</svg>
